HIERARCHY
ROOT SpineBase
{
  OFFSET 0.000000 0.000000 0.000000
  CHANNELS 6 Xposition Yposition Zposition Zrotation Xrotation Yrotation
  JOINT SpineMid
  {
    OFFSET 0.000000 29.121833 0.000000
    CHANNELS 3 Zrotation Xrotation Yrotation
    JOINT SpineShoulder
    {
      OFFSET -0.079015 21.608732 -0.714287
      CHANNELS 3 Zrotation Xrotation Yrotation
      JOINT Neck
      {
        OFFSET -0.069699 7.143457 -0.535522
        CHANNELS 3 Zrotation Xrotation Yrotation
        JOINT Head
        {
          OFFSET 4.418854 12.884723 0.871651
          CHANNELS 3 Zrotation Xrotation Yrotation
          End Site
          {
            OFFSET 0 0 0
          }
        }
      }
      JOINT ShoulderLeft
      {
        OFFSET -13.509415 -4.056166 -7.886560
        CHANNELS 3 Zrotation Xrotation Yrotation
        JOINT ElbowLeft
        {
          OFFSET -5.905382 -22.344574 -0.329891
          CHANNELS 3 Zrotation Xrotation Yrotation
          JOINT WristLeft
          {
            OFFSET 0.295655 -20.125955 -4.087361
            CHANNELS 3 Zrotation Xrotation Yrotation
            JOINT HandLeft
            {
              OFFSET 0.707084 -8.000528 -0.070760
              CHANNELS 3 Zrotation Xrotation Yrotation
              JOINT HandTipLeft
              {
                OFFSET -0.473554 -6.213430 -0.619637
                CHANNELS 3 Zrotation Xrotation Yrotation
                End Site
                {
                  OFFSET 0 0 0
                }
              }
              JOINT ThumbLeft
              {
                OFFSET 3.173879 1.412792 -0.491672
                CHANNELS 3 Zrotation Xrotation Yrotation
                End Site
                {
                  OFFSET 0 0 0
                }
              }
            }
          }
        }
      }
      JOINT ShoulderRight
      {
        OFFSET 15.502333 -6.118935 3.310870
        CHANNELS 3 Zrotation Xrotation Yrotation
        JOINT ElbowRight
        {
          OFFSET 2.960300 -27.077079 3.171450
          CHANNELS 3 Zrotation Xrotation Yrotation
          JOINT WristRight
          {
            OFFSET -0.077488 -20.098171 -4.140841
            CHANNELS 3 Zrotation Xrotation Yrotation
            JOINT HandRight
            {
              OFFSET -0.439861 -3.674582 -0.403639
              CHANNELS 3 Zrotation Xrotation Yrotation
              JOINT HandTipRight
              {
                OFFSET 0.102917 -6.990282 1.365087
                CHANNELS 3 Zrotation Xrotation Yrotation
                End Site
                {
                  OFFSET 0 0 0
                }
              }
              JOINT ThumbRight
              {
                OFFSET -2.709900 -0.407128 -0.221184
                CHANNELS 3 Zrotation Xrotation Yrotation
                End Site
                {
                  OFFSET 0 0 0
                }
              }
            }
          }
        }
      }
    }
  }
  JOINT HipLeft
  {
    OFFSET -6.856454 1.369256 -5.096207
    CHANNELS 3 Zrotation Xrotation Yrotation
    JOINT KneeLeft
    {
      OFFSET -6.402907 -29.954191 9.533571
      CHANNELS 3 Zrotation Xrotation Yrotation
      JOINT AnkleLeft
      {
        OFFSET -4.063454 -33.008513 8.507737
        CHANNELS 3 Zrotation Xrotation Yrotation
        JOINT FootLeft
        {
          OFFSET 2.836258 -5.526557 -8.238061
          CHANNELS 3 Zrotation Xrotation Yrotation
          End Site
          {
            OFFSET 0 0 0
          }
        }
      }
    }
  }
  JOINT HipRight
  {
    OFFSET 6.065781 -0.121478 -1.345019
    CHANNELS 3 Zrotation Xrotation Yrotation
    JOINT KneeRight
    {
      OFFSET -4.925878 -23.868097 7.765189
      CHANNELS 3 Zrotation Xrotation Yrotation
      JOINT AnkleRight
      {
        OFFSET -8.536026 -35.009209 13.701194
        CHANNELS 3 Zrotation Xrotation Yrotation
        JOINT FootRight
        {
          OFFSET -1.074312 -8.085668 -4.285876
          CHANNELS 3 Zrotation Xrotation Yrotation
          End Site
          {
            OFFSET 0 0 0
          }
        }
      }
    }
  }
}
MOTION
Frames: 14
Frame Time: 0.033333
36.007045 84.497025 314.268692 -14.185452 -42.401219 6.695261 0.695108 -0.925859 -13.167317 0.153309 1.863918 -0.572536 -10.533377 22.047883 16.151971 0.000000 0.000000 0.000000 -57.642449 73.768041 48.930794 7.994915 -17.603759 13.301150 -13.776914 18.553398 2.673133 13.622760 5.153611 -0.357815 0.000000 0.000000 0.000000 0.000000 0.000000 0.000000 -22.162270 70.830274 28.056082 4.142174 -3.467327 0.465541 4.541376 7.676717 -4.049830 8.675034 21.885214 9.180364 0.000000 0.000000 0.000000 0.000000 0.000000 0.000000 150.508187 31.828767 -133.662914 -172.388157 -70.376389 -147.091475 -18.687900 51.690484 40.181179 0.000000 0.000000 0.000000 79.706827 33.402635 -46.023420 -43.642794 -10.003622 -18.067336 -123.895950 79.529942 113.285389 0.000000 0.000000 0.000000
35.902516 81.410512 312.895807 -12.723685 -48.316169 11.240410 0.482387 -0.599327 -17.786091 0.172185 2.102467 -0.561532 -14.130061 26.370667 19.169647 0.000000 0.000000 0.000000 -52.047363 80.100195 45.681457 2.356852 -18.118981 10.805408 -21.004781 15.720269 1.693062 20.396760 1.414610 1.573624 0.000000 0.000000 0.000000 0.000000 0.000000 0.000000 -16.328974 71.920774 21.942902 -1.628288 5.242722 0.481585 5.487512 8.316779 -4.346975 19.738129 12.578916 15.095237 0.000000 0.000000 0.000000 0.000000 0.000000 0.000000 150.826577 26.406505 -136.324625 -178.216216 -71.354183 -154.704983 -25.846734 59.731735 49.642351 0.000000 0.000000 0.000000 86.062091 34.217242 -58.395684 -41.936908 -15.014952 -17.957911 -154.395082 86.221778 146.635894 0.000000 0.000000 0.000000
34.173393 77.269465 310.964242 -12.022371 -52.046965 18.236823 0.317564 -0.416617 -24.852288 0.245035 2.142734 -0.599655 -16.806797 31.114853 21.182799 0.000000 0.000000 0.000000 -57.858388 86.525060 52.601412 -2.669527 -18.844226 9.426571 -25.328812 -4.500090 -7.164233 22.230956 15.743093 2.248158 0.000000 0.000000 0.000000 0.000000 0.000000 0.000000 4.004153 69.829618 3.195096 -13.268421 19.509782 1.863657 5.951250 6.623869 -4.826056 34.767618 2.181338 24.942667 0.000000 0.000000 0.000000 0.000000 0.000000 0.000000 149.808808 21.018436 -133.666777 178.317714 -71.997445 -159.209766 -33.175033 65.274963 58.349660 0.000000 0.000000 0.000000 89.686823 28.961806 -64.484812 -41.247870 -16.516701 -17.804272 127.946799 86.717081 -134.019138 0.000000 0.000000 0.000000
31.705809 73.119309 307.516925 -11.959174 -53.872066 25.065692 0.250137 -0.114868 -31.784568 0.352182 2.046715 -0.666633 -18.049919 36.301612 21.664633 0.000000 0.000000 0.000000 163.025484 89.238666 -167.558942 -5.789006 -19.950663 8.541584 -30.315821 -34.565591 -21.737002 12.700573 40.910370 6.736863 0.000000 0.000000 0.000000 0.000000 0.000000 0.000000 24.046670 61.967984 -13.954937 -37.915704 41.801146 12.651434 1.523289 4.971661 -7.858879 60.339438 -6.948662 42.731033 0.000000 0.000000 0.000000 0.000000 0.000000 0.000000 148.246691 17.732125 -129.524680 174.978999 -73.340334 -163.701276 -38.887531 68.268191 64.777279 0.000000 0.000000 0.000000 90.682180 21.725221 -65.641994 -41.502603 -15.777862 -17.826085 124.303297 86.342694 -130.225648 0.000000 0.000000 0.000000
28.896439 68.744624 301.921692 -11.919612 -53.093693 33.581891 0.293235 0.249415 -40.052435 0.488372 1.769048 -0.742710 -17.288867 41.404901 19.823179 0.000000 0.000000 0.000000 1.480205 87.008347 -5.271944 -5.710700 -18.096701 8.147050 -34.561761 -57.451429 -35.232973 -14.367974 58.135801 27.014637 0.000000 0.000000 0.000000 0.000000 0.000000 0.000000 35.728822 51.092301 -21.790661 -107.087986 55.167271 63.911423 -43.532149 27.847541 -33.732598 148.306598 21.903672 56.007360 0.000000 0.000000 0.000000 0.000000 0.000000 0.000000 146.196156 14.455148 -123.768081 169.544750 -73.119874 -170.312863 -39.983156 69.209344 65.907899 0.000000 0.000000 0.000000 87.146292 11.625888 -61.994067 -41.570388 -11.855342 -17.339607 173.725941 84.761837 179.090321 0.000000 0.000000 0.000000
26.581617 64.469085 294.585378 -11.374256 -50.003645 42.005137 0.500332 0.705054 -47.664329 0.640244 1.292327 -0.805831 -13.245402 45.665832 14.793598 0.000000 0.000000 0.000000 -11.437805 80.352535 7.727665 -3.465553 -17.683121 8.071290 -26.222504 -64.015665 -32.366036 -43.229280 54.808667 48.830781 0.000000 0.000000 0.000000 0.000000 0.000000 0.000000 42.039779 39.286557 -23.457859 -162.170463 27.795108 97.458990 -63.307556 35.752781 -151.464454 -174.031931 -28.304212 -65.015482 0.000000 0.000000 0.000000 0.000000 0.000000 0.000000 143.405440 11.651693 -117.754139 165.390315 -71.739067 -175.268338 -35.095099 67.403748 60.392994 0.000000 0.000000 0.000000 79.530370 0.117171 -55.965156 -41.537209 -4.442788 -16.328175 168.705616 84.525811 -175.731195 0.000000 0.000000 0.000000
24.018151 61.123434 287.282767 -12.662505 -45.739773 49.764054 0.565737 0.218863 -55.639937 0.593023 1.125275 -0.788449 -4.711865 47.794710 7.165887 0.000000 0.000000 0.000000 -11.062203 70.680162 8.510260 -0.252613 -14.679448 7.700336 -20.344712 -59.659691 -25.832209 -50.860339 48.326651 53.195767 0.000000 0.000000 0.000000 0.000000 0.000000 0.000000 47.483094 30.580559 -23.228530 -179.955380 3.277264 90.976003 -48.204289 30.527352 151.287615 149.935269 -25.186472 -130.657853 0.000000 0.000000 0.000000 0.000000 0.000000 0.000000 140.969573 8.083157 -108.974244 165.906409 -69.864307 -174.355040 -35.341178 67.525224 60.664372 0.000000 0.000000 0.000000 71.238346 -15.193861 -49.353184 -42.700646 5.812209 -15.262717 171.242038 84.928072 -178.331664 0.000000 0.000000 0.000000
22.571657 60.558602 281.596966 -13.552529 -43.611193 54.615000 0.518978 -0.003666 -60.647853 0.523050 1.311919 -0.750205 0.024023 48.958382 3.075293 0.000000 0.000000 0.000000 -8.643822 60.195677 7.857741 1.780802 -9.320998 6.258877 -18.586813 -45.431073 -18.707149 -46.295606 46.498672 47.219694 0.000000 0.000000 0.000000 0.000000 0.000000 0.000000 51.564540 25.715478 -23.072096 170.172769 -13.591740 70.766819 -41.923020 17.023648 138.674609 138.182240 -8.668139 -153.862601 0.000000 0.000000 0.000000 0.000000 0.000000 0.000000 139.308796 5.416873 -102.793246 167.859326 -69.645869 -171.796526 -35.447080 67.613779 60.780566 0.000000 0.000000 0.000000 66.081699 -24.279753 -47.597128 -42.984874 11.635827 -14.415346 171.238947 84.849760 -178.330114 0.000000 0.000000 0.000000
21.855152 61.313045 277.181123 -14.372683 -42.720711 56.239047 1.277140 0.316469 -62.425924 0.426978 1.192017 -0.735940 1.863442 48.055066 1.873040 0.000000 0.000000 0.000000 -4.214919 53.656085 5.447893 1.583192 -6.487401 4.933193 -17.478076 -28.596533 -11.767824 -44.993629 55.833222 46.287670 0.000000 0.000000 0.000000 0.000000 0.000000 0.000000 53.704803 24.422714 -22.812129 161.841453 -24.410796 40.555743 -35.312604 -0.280596 149.444460 135.496104 1.570679 -161.374397 0.000000 0.000000 0.000000 0.000000 0.000000 0.000000 140.266767 3.398130 -99.088690 171.468294 -68.187701 -166.800819 -35.462796 67.598063 60.805206 0.000000 0.000000 0.000000 64.132117 -28.506877 -46.639042 -43.460751 14.418657 -14.072009 171.478524 84.818728 -178.574500 0.000000 0.000000 0.000000
21.109591 61.751492 273.382948 -16.033567 -41.589798 56.919752 2.258098 0.745301 -63.501492 0.788560 0.154356 -0.986699 0.374675 44.413838 4.090697 0.000000 0.000000 0.000000 0.199373 48.543758 3.377170 1.112060 -4.428976 3.732059 -21.805146 -17.294254 -8.366001 -88.131327 67.057167 93.975943 0.000000 0.000000 0.000000 0.000000 0.000000 0.000000 55.816216 25.615593 -23.261706 160.687661 -23.624123 32.714715 -32.916608 -4.109462 158.619049 135.988957 -0.025486 -159.816672 0.000000 0.000000 0.000000 0.000000 0.000000 0.000000 142.953072 1.141756 -93.715177 177.233934 -65.204169 -158.267507 -35.451346 67.541557 60.804132 0.000000 0.000000 0.000000 63.278214 -33.145006 -44.534337 -44.577378 17.277314 -13.828709 171.983363 84.799634 -179.089366 0.000000 0.000000 0.000000
23.126350 64.065816 272.999100 -15.020029 -44.191826 54.570317 2.268243 1.213961 -61.030638 0.567211 0.488563 -0.880584 -0.744714 46.328414 4.762176 0.000000 0.000000 0.000000 2.661446 49.016270 1.745603 -0.197764 -4.111484 3.109241 -25.477802 -11.110121 -6.192235 -74.396553 56.503289 74.046367 0.000000 0.000000 0.000000 0.000000 0.000000 0.000000 53.610498 27.362917 -23.789493 167.648619 -16.928634 57.227582 -39.786478 8.559897 142.183129 136.560694 -2.737017 -158.108263 0.000000 0.000000 0.000000 0.000000 0.000000 0.000000 145.809630 1.147429 -98.281896 175.617726 -64.109777 -160.103718 -35.423770 67.431136 60.794130 0.000000 0.000000 0.000000 67.075846 -26.570091 -46.691676 -43.794056 12.880134 -14.425685 172.872507 84.806971 -179.995445 0.000000 0.000000 0.000000
24.433990 66.127251 273.271730 -14.229727 -47.019507 50.896631 2.133903 1.404279 -57.423311 -0.100782 1.805419 -0.514330 -1.282310 47.753883 5.185232 0.000000 0.000000 0.000000 5.772429 49.078733 -0.275870 -1.701770 -2.879619 2.632323 -28.488829 -8.501341 -5.247789 -40.940988 56.171095 45.906109 0.000000 0.000000 0.000000 0.000000 0.000000 0.000000 53.965789 28.392876 -24.966710 167.662920 -16.940141 57.176003 -39.784827 8.533766 142.231078 136.596628 -2.724375 -158.123811 0.000000 0.000000 0.000000 0.000000 0.000000 0.000000 148.243709 1.652080 -103.523061 174.758178 -63.685592 -161.155103 -35.355786 67.343118 60.727836 0.000000 0.000000 0.000000 72.030979 -18.150222 -49.518682 -42.937116 7.064328 -15.138844 173.343590 84.801003 179.524307 0.000000 0.000000 0.000000
26.428414 68.868907 276.163464 -11.980595 -52.102898 47.056740 1.561836 1.288886 -53.239792 -1.271060 4.178202 0.205765 -3.069453 50.745255 6.320730 0.000000 0.000000 0.000000 7.585649 55.459408 -2.941252 -2.770697 -5.205810 3.162513 -27.080335 -13.800848 -7.149226 -50.020201 57.651110 53.601451 0.000000 0.000000 0.000000 0.000000 0.000000 0.000000 54.244039 30.654693 -27.379226 167.662427 -16.948971 57.155773 -39.782526 8.522724 142.248567 136.598054 -2.721822 -158.123870 0.000000 0.000000 0.000000 0.000000 0.000000 0.000000 148.982040 3.496528 -113.175224 169.900158 -66.501951 -168.525267 -35.271119 67.276142 60.635098 0.000000 0.000000 0.000000 78.573246 -5.282453 -57.447280 -40.278979 -2.147658 -15.517550 173.475505 84.789538 179.389333 0.000000 0.000000 0.000000
28.084756 71.144669 278.144854 -10.161728 -55.819262 42.865057 1.301462 1.152174 -48.613278 -1.925411 4.914826 0.594894 -5.224013 53.786028 7.774063 0.000000 0.000000 0.000000 8.134519 59.714185 -4.330561 -3.179235 -5.910288 3.298559 -27.620591 -14.180619 -7.284655 -50.015755 57.611085 53.552985 0.000000 0.000000 0.000000 0.000000 0.000000 0.000000 54.594021 32.981003 -29.917157 167.665674 -16.957193 57.131868 -39.781109 8.510162 142.270029 136.606496 -2.717328 -158.127198 0.000000 0.000000 0.000000 0.000000 0.000000 0.000000 149.574355 5.814861 -121.206265 166.093451 -68.804526 -173.992807 -35.204997 67.218050 60.563842 0.000000 0.000000 0.000000 84.529487 5.479482 -64.715462 -38.173752 -9.651447 -15.531030 173.672213 84.781285 179.188396 0.000000 0.000000 0.000000
